<svg xmlns="http://www.w3.org/2000/svg" width="198" height="42" viewBox="0 0 198 42">
        <g fill="none" fill-rule="evenodd">
          <path class="logo__e--border" fill="#D50C1F" stroke="#FFF" stroke-width="2" d="M1 40.928h46.045V1H1z"></path>
          <path class="logo__e" fill="#FFF" d="M21.464 23.96v-2h7.675v-3.99h7.67v-6.99H11.23v19.964h25.58V23.96"></path>
          <path class="logo__text" fill="#FFFFFF" d="M125.066 10.982v19.964h8.953v-8.984h3.832v8.984h8.954V17.97h-12.79v-6.99h-8.955zm-38.37 3.993h8.952v-3.993h-8.953v3.993zm-29.42-3.993v19.964H82.86V23.96H67.51v-2h7.674v-3.99h7.674v-6.99h-25.58zM189.02 30.946h8.953V10.982h-8.952v19.964zm-12.79 0h8.952V10.982h-8.953v19.964zM150.65 17.97v12.975h21.742v-3.993H159.6v-1.996h12.79V17.97h-21.743zm8.952 4.49h5.116v-1.996H159.6v1.996zm-60.115-4.49v12.975h8.954V21.96h3.84v8.985h8.953V17.97H99.485zm-12.79 12.975h8.953V17.97h-8.953v12.976z"></path>
        </g>

</svg>
